<svg xmlns="http://www.w3.org/2000/svg" xmlns:xlink="http://www.w3.org/1999/xlink" zoomAndPan="magnify" preserveAspectRatio="xMidYMid meet" version="1.0" viewBox="37.6 146.06 301.35 83.25"><defs><g/><clipPath id="60c2ab8957"><path d="M 37.597656 146.058594 L 109.597656 146.058594 L 109.597656 229.308594 L 37.597656 229.308594 Z M 37.597656 146.058594 " clip-rule="nonzero"/></clipPath></defs><g clip-path="url(#60c2ab8957)"><path fill="#e50914" d="M 43.433594 202.046875 C 49.867188 211.949219 60.984375 218.511719 73.597656 218.511719 C 93.449219 218.511719 109.597656 202.269531 109.597656 182.300781 C 109.597656 162.335938 93.449219 146.089844 73.597656 146.089844 C 53.746094 146.089844 37.597656 162.335938 37.597656 182.300781 L 37.597656 229.277344 L 43.433594 229.277344 Z M 82.355469 182.300781 C 82.355469 177.445312 86.28125 173.492188 91.109375 173.492188 C 95.941406 173.492188 99.867188 177.445312 99.867188 182.300781 C 99.867188 187.15625 95.941406 191.109375 91.109375 191.109375 C 86.28125 191.109375 82.355469 187.15625 82.355469 182.300781 Z M 82.355469 199.917969 C 82.355469 204.773438 78.425781 208.722656 73.597656 208.722656 C 68.769531 208.722656 64.839844 204.773438 64.839844 199.917969 C 64.839844 195.058594 68.769531 191.109375 73.597656 191.109375 C 78.425781 191.109375 82.355469 195.058594 82.355469 199.917969 Z M 73.597656 173.492188 C 68.769531 173.492188 64.839844 169.542969 64.839844 164.683594 C 64.839844 159.828125 68.769531 155.878906 73.597656 155.878906 C 78.425781 155.878906 82.355469 159.828125 82.355469 164.683594 C 82.355469 169.542969 78.425781 173.492188 73.597656 173.492188 Z M 64.839844 182.300781 C 64.839844 187.15625 60.914062 191.109375 56.082031 191.109375 C 51.253906 191.109375 47.328125 187.15625 47.328125 182.300781 C 47.328125 177.445312 51.253906 173.492188 56.082031 173.492188 C 60.914062 173.492188 64.839844 177.445312 64.839844 182.300781 Z M 64.839844 182.300781 " fill-opacity="1" fill-rule="nonzero"/></g><g fill="#222222" fill-opacity="1"><g transform="translate(119.68444, 210.497131)"><g><path d="M 19.84375 0.671875 C 17.15625 0.671875 14.734375 0.257812 12.578125 -0.5625 C 10.421875 -1.394531 8.582031 -2.597656 7.0625 -4.171875 C 5.539062 -5.742188 4.375 -7.671875 3.5625 -9.953125 C 2.757812 -12.242188 2.359375 -14.867188 2.359375 -17.828125 C 2.359375 -20.785156 2.757812 -23.40625 3.5625 -25.6875 C 4.375 -27.976562 5.539062 -29.90625 7.0625 -31.46875 C 8.582031 -33.039062 10.421875 -34.242188 12.578125 -35.078125 C 14.734375 -35.910156 17.15625 -36.328125 19.84375 -36.328125 C 22.351562 -36.328125 24.550781 -35.976562 26.4375 -35.28125 C 28.320312 -34.582031 29.925781 -33.640625 31.25 -32.453125 C 32.570312 -31.265625 33.644531 -29.894531 34.46875 -28.34375 C 35.300781 -26.800781 35.921875 -25.203125 36.328125 -23.546875 L 26.90625 -23.546875 C 26.226562 -24.890625 25.351562 -25.953125 24.28125 -26.734375 C 23.207031 -27.523438 21.726562 -27.921875 19.84375 -27.921875 C 17.46875 -27.921875 15.523438 -27.078125 14.015625 -25.390625 C 12.515625 -23.710938 11.765625 -21.191406 11.765625 -17.828125 C 11.765625 -14.460938 12.515625 -11.9375 14.015625 -10.25 C 15.523438 -8.570312 17.46875 -7.734375 19.84375 -7.734375 C 21.726562 -7.734375 23.207031 -8.125 24.28125 -8.90625 C 25.351562 -9.695312 26.226562 -10.765625 26.90625 -12.109375 L 36.328125 -12.109375 C 35.921875 -10.398438 35.300781 -8.785156 34.46875 -7.265625 C 33.644531 -5.742188 32.570312 -4.382812 31.25 -3.1875 C 29.925781 -2 28.320312 -1.054688 26.4375 -0.359375 C 24.550781 0.328125 22.351562 0.671875 19.84375 0.671875 Z M 19.84375 0.671875 "/></g></g></g><g fill="#222222" fill-opacity="1"><g transform="translate(156.338288, 210.497131)"><g><path d="M 4.03125 -35.65625 L 13.453125 -35.65625 L 13.453125 0 L 4.03125 0 Z M 8.75 -39.34375 C 7.21875 -39.34375 5.9375 -39.859375 4.90625 -40.890625 C 3.875 -41.921875 3.359375 -43.203125 3.359375 -44.734375 C 3.359375 -46.253906 3.875 -47.53125 4.90625 -48.5625 C 5.9375 -49.59375 7.21875 -50.109375 8.75 -50.109375 C 10.269531 -50.109375 11.546875 -49.59375 12.578125 -48.5625 C 13.609375 -47.53125 14.125 -46.253906 14.125 -44.734375 C 14.125 -43.203125 13.609375 -41.921875 12.578125 -40.890625 C 11.546875 -39.859375 10.269531 -39.34375 8.75 -39.34375 Z M 8.75 -39.34375 "/></g></g></g><g fill="#222222" fill-opacity="1"><g transform="translate(172.142985, 210.497131)"><g><path d="M 4.03125 -35.65625 L 12.109375 -35.65625 L 13.109375 -31.609375 L 13.453125 -31.609375 C 14.617188 -33.140625 16.007812 -34.304688 17.625 -35.109375 C 19.238281 -35.921875 20.988281 -36.328125 22.875 -36.328125 C 24.800781 -36.328125 26.570312 -36 28.1875 -35.34375 C 29.800781 -34.695312 31.175781 -33.742188 32.3125 -32.484375 C 33.457031 -31.234375 34.351562 -29.722656 35 -27.953125 C 35.65625 -26.179688 35.984375 -24.148438 35.984375 -21.859375 L 35.984375 0 L 26.5625 0 L 26.5625 -20.515625 C 26.5625 -22.890625 26 -24.71875 24.875 -26 C 23.757812 -27.28125 22.191406 -27.921875 20.171875 -27.921875 C 18.160156 -27.921875 16.535156 -27.234375 15.296875 -25.859375 C 14.066406 -24.492188 13.453125 -22.710938 13.453125 -20.515625 L 13.453125 0 L 4.03125 0 Z M 4.03125 -35.65625 "/></g></g></g><g fill="#222222" fill-opacity="1"><g transform="translate(210.141943, 210.497131)"><g><path d="M 19.84375 0.671875 C 17.15625 0.671875 14.734375 0.257812 12.578125 -0.5625 C 10.421875 -1.394531 8.582031 -2.597656 7.0625 -4.171875 C 5.539062 -5.742188 4.375 -7.671875 3.5625 -9.953125 C 2.757812 -12.242188 2.359375 -14.867188 2.359375 -17.828125 C 2.359375 -20.785156 2.757812 -23.40625 3.5625 -25.6875 C 4.375 -27.976562 5.539062 -29.90625 7.0625 -31.46875 C 8.582031 -33.039062 10.421875 -34.242188 12.578125 -35.078125 C 14.734375 -35.910156 17.15625 -36.328125 19.84375 -36.328125 C 22.445312 -36.328125 24.800781 -35.890625 26.90625 -35.015625 C 29.007812 -34.140625 30.8125 -32.90625 32.3125 -31.3125 C 33.820312 -29.71875 34.976562 -27.832031 35.78125 -25.65625 C 36.59375 -23.488281 37 -21.101562 37 -18.5 C 37 -18.007812 36.972656 -17.535156 36.921875 -17.078125 C 36.878906 -16.628906 36.835938 -16.226562 36.796875 -15.875 C 36.753906 -15.46875 36.707031 -15.109375 36.65625 -14.796875 L 12.109375 -14.796875 C 12.460938 -12.773438 13.242188 -11.09375 14.453125 -9.75 C 15.671875 -8.40625 17.46875 -7.734375 19.84375 -7.734375 C 21.675781 -7.734375 23.03125 -8.035156 23.90625 -8.640625 C 24.78125 -9.242188 25.554688 -10.0625 26.234375 -11.09375 L 36.328125 -11.09375 C 35.921875 -9.570312 35.300781 -8.101562 34.46875 -6.6875 C 33.644531 -5.28125 32.570312 -4.023438 31.25 -2.921875 C 29.925781 -1.828125 28.320312 -0.953125 26.4375 -0.296875 C 24.550781 0.347656 22.351562 0.671875 19.84375 0.671875 Z M 27.25 -21.859375 C 27.0625 -22.617188 26.773438 -23.359375 26.390625 -24.078125 C 26.015625 -24.796875 25.523438 -25.445312 24.921875 -26.03125 C 24.316406 -26.613281 23.585938 -27.070312 22.734375 -27.40625 C 21.878906 -27.75 20.914062 -27.921875 19.84375 -27.921875 C 17.644531 -27.921875 15.925781 -27.335938 14.6875 -26.171875 C 13.457031 -25.003906 12.597656 -23.566406 12.109375 -21.859375 Z M 27.25 -21.859375 "/></g></g></g><g fill="#222222" fill-opacity="1"><g transform="translate(247.804628, 210.497131)"><g><path d="M 7.0625 -26.90625 L 1.34375 -26.90625 L 1.34375 -35.65625 L 7.0625 -35.65625 L 7.0625 -38.671875 C 7.0625 -42.035156 7.976562 -44.613281 9.8125 -46.40625 C 11.65625 -48.207031 14.4375 -49.109375 18.15625 -49.109375 L 24.890625 -49.109375 L 24.890625 -40.703125 L 19.84375 -40.703125 C 18.8125 -40.703125 17.992188 -40.394531 17.390625 -39.78125 C 16.785156 -39.175781 16.484375 -38.359375 16.484375 -37.328125 L 16.484375 -35.65625 L 24.890625 -35.65625 L 24.890625 -26.90625 L 16.484375 -26.90625 L 16.484375 0 L 7.0625 0 Z M 7.0625 -26.90625 "/></g></g></g><g fill="#222222" fill-opacity="1"><g transform="translate(272.352517, 210.497131)"><g><path d="M 4.375 -47.078125 L 13.796875 -47.078125 L 13.796875 0 L 4.375 0 Z M 4.375 -47.078125 "/></g></g></g><g fill="#222222" fill-opacity="1"><g transform="translate(288.82976, 210.497131)"><g><path d="M 4.03125 -35.65625 L 13.453125 -35.65625 L 13.453125 0 L 4.03125 0 Z M 8.75 -39.34375 C 7.21875 -39.34375 5.9375 -39.859375 4.90625 -40.890625 C 3.875 -41.921875 3.359375 -43.203125 3.359375 -44.734375 C 3.359375 -46.253906 3.875 -47.53125 4.90625 -48.5625 C 5.9375 -49.59375 7.21875 -50.109375 8.75 -50.109375 C 10.269531 -50.109375 11.546875 -49.59375 12.578125 -48.5625 C 13.609375 -47.53125 14.125 -46.253906 14.125 -44.734375 C 14.125 -43.203125 13.609375 -41.921875 12.578125 -40.890625 C 11.546875 -39.859375 10.269531 -39.34375 8.75 -39.34375 Z M 8.75 -39.34375 "/></g></g></g><g fill="#222222" fill-opacity="1"><g transform="translate(304.634457, 210.497131)"><g><path d="M 10.765625 -18.5 L 0 -35.65625 L 10.421875 -35.65625 L 16.8125 -24.546875 L 23.203125 -35.65625 L 33.625 -35.65625 L 22.875 -18.5 L 34.3125 0 L 23.875 0 L 16.8125 -12.109375 L 9.75 0 L -0.671875 0 Z M 10.765625 -18.5 "/></g></g></g></svg>